<?xml version="1.0" standalone="no"?>
<!DOCTYPE svg PUBLIC "-//W3C//DTD SVG 20010904//EN"
 "http://www.w3.org/TR/2001/REC-SVG-20010904/DTD/svg10.dtd">
<svg version="1.0" xmlns="http://www.w3.org/2000/svg"
 width="512.000000pt" height="512.000000pt" viewBox="0 0 512.000000 512.000000"
 preserveAspectRatio="xMidYMid meet">
<metadata>
Created by potrace 1.11, written by Peter Selinger 2001-2013
</metadata>
<g transform="translate(0.000000,512.000000) scale(0.100000,-0.100000)"
fill="#000000" stroke="none">
<path d="M449 4203 c-63 -39 -59 77 -59 -1562 l0 -1491 2173 2 2172 3 0 1490
c0 1447 -1 1491 -19 1518 -41 61 118 57 -2158 57 -1908 -1 -2085 -2 -2109 -17z
m1559 -655 c-53 -141 -139 -474 -188 -730 -10 -50 -15 -58 -33 -58 -12 0 -109
-5 -215 -12 -105 -6 -194 -9 -197 -7 -5 6 57 183 113 324 52 129 147 328 205
430 l46 80 103 11 c57 6 122 12 145 13 l41 1 -20 -52z m622 49 c0 -2 -14 -43
-30 -93 -64 -187 -155 -544 -176 -687 -3 -26 -9 -49 -13 -51 -11 -7 -421 -29
-427 -23 -8 8 49 177 107 317 70 170 123 282 192 407 l62 111 95 7 c52 4 100
8 105 10 13 4 85 6 85 2z m520 -1072 c0 -14 -83 -243 -125 -344 -58 -141 -213
-455 -242 -491 -6 -6 -277 -30 -282 -24 -3 2 17 70 42 152 59 183 112 389 143
551 13 68 25 126 27 127 2 2 93 10 203 17 109 8 207 15 217 16 9 0 17 -1 17
-4z m600 -8 c0 -19 -71 -217 -126 -350 -48 -115 -145 -316 -206 -422 l-34 -60
-139 -12 c-77 -7 -141 -11 -142 -9 -2 1 18 67 43 147 56 176 126 449 150 587
l17 102 31 1 c27 1 361 24 394 28 6 0 12 -5 12 -12z"/>
</g>
</svg>
